<?xml version="1.0" encoding="UTF-8"?>
<svg xmlns="http://www.w3.org/2000/svg" xmlns:xlink="http://www.w3.org/1999/xlink" viewBox="0 0 500 540">
  <defs>
    <style>
      .cls-1 {
        fill: url(#linear-gradient);
      }

      .cls-2 {
        filter: url(#outer-glow-1);
      }

      .cls-2, .cls-3 {
        fill: #fbc780;
      }

      .cls-4 {
        fill: #eb735d;
      }

      .cls-5 {
        fill: #ffe2b6;
      }

      .cls-6 {
        fill: #b7665c;
      }

      .cls-7 {
        fill: #b35c56;
      }

      .cls-8 {
        fill: #cb635a;
      }

      .cls-9 {
        fill: #d6695a;
      }

      .cls-10 {
        fill: #372942;
      }

      .cls-11 {
        fill: #563348;
      }

      .cls-12 {
        fill: #3a3353;
      }
    </style>
    <linearGradient id="linear-gradient" x1="-19.76" y1="270" x2="517.39" y2="270" gradientUnits="userSpaceOnUse">
      <stop offset="0" stop-color="#d48570"/>
      <stop offset=".38" stop-color="#723c54"/>
      <stop offset="1" stop-color="#311c51"/>
    </linearGradient>
    <filter id="outer-glow-1" filterUnits="userSpaceOnUse">
      <feOffset dx="0" dy="0"/>
      <feGaussianBlur result="blur" stdDeviation="30"/>
      <feFlood flood-color="#f3bb26" flood-opacity=".85"/>
      <feComposite in2="blur" operator="in"/>
      <feComposite in="SourceGraphic"/>
    </filter>
  </defs>
  <g id="Layer_1" data-name="Layer 1">
    <rect class="cls-1" x="-19.76" y="19.76" width="540" height="500.48" transform="translate(-19.76 520.24) rotate(-90)"/>
    <g>
      <rect class="cls-6" x=".48" y="507.5" width="500" height="67.38"/>
      <circle class="cls-2" cx="250" cy="487.46" r="24.63"/>
      <circle class="cls-3" cx="250" cy="490.68" r="30"/>
      <polygon class="cls-11" points="-15.82 574.88 212.66 507.5 287.68 507.5 516.78 574.88 -15.82 574.88"/>
      <path class="cls-9" d="M0,484.26s81.74-16.85,92.76-16.85,220.69,40.09,220.69,40.09H0v-23.24Z"/>
      <path class="cls-4" d="M499.52,484.91s-80.74-17.82-91.43-17.5-225.23,40.09-225.23,40.09H500l-.48-22.59Z"/>
      <polygon class="cls-10" points="27.61 574.88 212.58 507.5 287.59 507.5 472.21 574.88 27.61 574.88"/>
    </g>
    <path class="cls-8" d="M41.98,507.5s43.57-16.82,53.54-16.82,54.67,16.82,54.67,16.82H41.98Z"/>
    <path class="cls-7" d="M97.23,507.5s37.98-11.73,46.68-11.73,47.66,11.73,47.66,11.73"/>
    <path class="cls-8" d="M317.55,507.5s53.33-24.03,65.54-24.03c11.74,0,66.91,24.03,66.91,24.03h-132.45Z"/>
    <path class="cls-7" d="M429.18,507.5s37.98-11.73,46.68-11.73,47.66,11.73,47.66,11.73"/>
    <polygon class="cls-5" points="219.21 507.58 67.22 574.81 90.55 574.81 219.21 507.58"/>
    <polygon class="cls-5" points="280 507.58 431.98 574.81 408.66 574.81 280 507.58"/>
  </g>
  <g id="Layer_3" data-name="Layer 3">
    <path class="cls-12" d="M466.82,520c1.04-.94,2.05-2.01,3.22-2.86,1.75-1.27,3.3-.66,3.97,1.4,.32,1,.04,1.89-.65,2.55-.74,.7-1.57,1.36-2.47,1.83-1.23,.63-2.55,1.1-3.86,1.53-.78,.26-1.45,.47-1.51,1.48-.01,.22-.59,.56-.93,.58-1.17,.07-2.36,.07-3.53,0-.3-.02-.75-.38-.83-.67-.35-1.3-.64-2.63-.84-3.96-.11-.7-.39-1-1.07-1.21-3.44-1.04-5.56-3.58-5.88-6.96-.04-.45,0-.93,.09-1.38,.36-1.71,2.04-2.26,3.32-1.07,.51,.48,.91,1.09,1.33,1.67,.33,.45,.61,.93,1.12,1.35,0-1.69-.06-3.38,.02-5.06,.09-1.97,.35-3.92,1.48-5.61,1.67-2.47,4.97-2.32,6.42,.27,.24,.43,.43,.88,.79,1.65,.51-.61,.88-1.12,1.31-1.57,.57-.59,1.14-1.19,1.79-1.68,1.24-.93,2.54-.85,3.59,.14,.89,.84,1,2.03,.22,3.32-1.3,2.15-3.24,3.59-5.49,4.6-.7,.31-.91,.65-.95,1.4-.16,2.77-.42,5.53-.64,8.27Z"/>
    <path class="cls-12" d="M401.87,533.25h-5.63c0-2.28-.04-4.49,.02-6.69,.03-1.19-.39-1.75-1.58-2.12-3.1-.95-4.86-3.42-6.24-6.15-2.39-4.73-3.54-9.84-3.93-15.06-.32-4.29-.17-8.62-.02-12.92,.04-1.19,.63-2.44,1.24-3.52,1.17-2.09,3.8-2.01,4.84,.17,.48,.99,.69,2.18,.73,3.29,.17,5.95,.11,11.9,.41,17.84,.14,2.72,.75,5.46,1.46,8.11,.4,1.5,1.42,2.83,2.16,4.24,.18-.05,.37-.1,.55-.16,0-1.02,.03-2.05,0-3.07-.41-13.58-.89-27.15-1.21-40.73-.08-3.41,.26-6.84,.64-10.24,.16-1.44,.63-3.04,1.49-4.14,.69-.88,2.21-1.52,3.34-1.49,.8,.02,2.04,1.23,2.26,2.11,.71,2.89,1.18,5.86,1.46,8.83,.23,2.35,.05,4.74,.25,7.16,2.65-2.43,4.32-5.29,4.41-8.89,.08-3.54,0-7.09,.1-10.64,.08-2.61,1.26-3.65,3.48-2.94,.89,.28,2.05,1.24,2.2,2.06,1.19,6.43,1.96,12.88-2.08,18.74-1.82,2.63-4.34,4.43-7.13,5.95-.58,.32-1.18,1.2-1.21,1.84-.41,9.06-.73,18.13-1.03,27.2-.08,2.4-.01,4.8-.01,7.62,.91-1.21,1.86-2.21,2.5-3.37,1.83-3.34,2.28-7.05,2.55-10.77,.38-5.33,.69-10.67,1.06-16,.05-.71,.21-1.42,.37-2.12,.3-1.37,.84-2.59,2.5-2.6,1.63,0,3.19,.6,3.48,2.27,.41,2.4,.66,4.9,.43,7.31-.49,5.25-1.17,10.5-2.05,15.7-1.06,6.24-4.22,11.02-10.35,13.49-.45,.18-.91,.91-.96,1.43-.18,2.03-.19,4.08-.29,6.12-.03,.7-.12,1.4-.19,2.15Z"/>
    <path class="cls-12" d="M434.33,506.45c-.09-.82-.22-1.65-.25-2.47-.03-.78-.07-1.57,.08-2.33,.22-1.17,1.2-1.84,2.39-1.81,.82,.02,1.44,.43,1.64,1.28,.2,.87,.24,1.77,.41,2.83,.04-.11,.05-.23,.11-.33,.23-.4,.46-.79,.72-1.17,.33-.49,.65-1,1.05-1.44,.35-.4,.8-.72,1.39-.49,.64,.25,1.02,.73,1.06,1.43,.08,1.37-.64,2.37-1.69,3.08-.77,.52-1.7,.83-2.58,1.18-.32,.13-.44,.25-.46,.6-.05,1.48-.16,2.96-.22,4.44-.02,.38-.14,.54-.54,.52-.63-.03-1.26-.01-1.89,0-.26,0-.4-.08-.44-.36-.06-.47-.15-.94-.27-1.4-.04-.17-.18-.34-.32-.45-1.06-.79-2.18-1.51-3.2-2.35-.79-.65-1.26-1.54-1.08-2.62,.06-.35,.21-.73,.42-1.01,.63-.84,1.64-.78,2.17,.13,.26,.45,.45,.95,.68,1.42,.22,.46,.46,.9,.69,1.36,.05-.01,.09-.02,.14-.03Z"/>
    <path class="cls-12" d="M340.24,497.72c.6-.26,1.19-.52,1.75-.77,0-.9-.02-1.93,0-2.96,.03-1.19,.2-2.38,1.41-2.95,1.26-.6,2.54-.3,3.69,.39,.89,.53,1.11,1.41,.94,2.39-.31,1.84-1.29,3.33-2.45,4.73-.19,.23-.41,.45-.53,.59,.62,1.54,1.2,3.01,1.8,4.5,1.07,.16,1.76-.19,2.13-1.42,.53-1.77,1.47-3.35,2.74-4.36-.33-1.92-.78-3.66-.9-5.42-.13-1.94,.9-3.2,2.32-3.27,1.4-.07,2.4,.96,2.62,2.93,.1,.89,0,1.83-.14,2.73-.14,.86-.45,1.7-.65,2.38,.82,.94,1.58,1.81,2.29,2.63,1.36-.2,2.81-.57,4.27-.6,1.85-.05,3,.96,3.15,2.39,.19,1.86-.82,3.06-2.81,3.25-2.06,.19-4.08-.06-5.99-.87-.47-.2-.74-.18-1.16,.12-.99,.7-2.02,1.37-3.1,1.92-.56,.29-.71,.58-.63,1.17,.29,2.15-.11,4.18-1.07,6.13-.27,.56-.63,.86-1.27,.77-.17-.02-.34,0-.51,0-2.35,0-2.42,0-3-2.32-.31-1.24-.39-2.55-.63-3.81-.07-.38-.29-.83-.58-1.04-1.31-.92-2.33-2.06-3.1-3.46-.17-.3-.62-.57-.97-.62-1.88-.25-3.66-.74-5.15-2-1.83-1.55-2.06-3.69-.6-5.38,1.17-1.35,2.58-1.51,3.91-.3,.84,.77,1.51,1.73,2.21,2.54Z"/>
    <path class="cls-12" d="M95.27,506.81c.52-1.68,1.04-3.36,1.54-5.05,.18-.62,.21-1.28,.41-1.88,.51-1.52,1.55-2.33,3.2-2.13,1.53,.19,2.18,1.28,2.41,2.64,.59,3.4-1.34,7.49-5.2,9.15-2.99,1.28-3.43,3.07-3.36,5.87,.11,4.1-.21,8.21-.28,12.32-.02,1.03-.33,1.5-1.43,1.43-1.28-.08-2.57-.02-4.06-.02-.1-1.54-.19-2.97-.28-4.48-4.23-.07-6.04-2.83-6.77-6.3-1.16-5.5-2.04-11.05-2.93-16.6-.21-1.32-.45-2.32-1.72-3.17-3.07-2.04-5.01-4.91-5.12-8.75-.06-2.07,.78-3.38,2.17-3.51,1.67-.15,2.97,1.16,3.26,3.23,.16,1.16,.37,2.31,.61,3.45,.13,.62,.35,1.23,.94,2.14,.06-.23,.08-.48,.2-.67,1.35-2.33,4.05-2.4,5.18,.05,.81,1.77,1.27,3.78,1.46,5.73,.5,5.08,.73,10.18,1.15,15.27,.14,1.71,.55,3.4,.84,5.09,.18-.02,.36-.04,.53-.07-.15-2.87-.31-5.74-.46-8.61-.42-8.02-.82-16.05-1.31-24.07-.04-.58-.59-1.34-1.11-1.66-2.73-1.6-4.92-3.62-5.74-6.79-.47-1.81,.15-3.29,1.68-4.23,1.64-1.01,2.6-.72,3.25,1.09,.59,1.65,1.02,3.36,1.57,5.02,.22,.65,.58,1.25,.99,2.13,.45-.8,.74-1.41,1.12-1.96,1.51-2.21,4.35-2.21,5.61,.14,.8,1.5,1.18,3.23,1.77,4.91,.8-3.4,.32-6.78-.11-10.14-.55-4.3-1.4-8.58-.54-12.94,.1-.51,.24-1.03,.44-1.51,.51-1.23,1.46-2.28,2.76-1.99,.9,.2,1.65,1.26,2.38,2.02,.29,.31,.34,.85,.91,1.35,.41-1.77,.81-3.54,1.25-5.3,.19-.79,.37-1.6,.7-2.34,.77-1.73,2.16-2.36,3.86-1.87,1.73,.5,2.94,1.96,2.48,3.67-.48,1.77-1.25,3.56-2.3,5.05-1.3,1.86-2.94,3.51-4.59,5.08-.91,.87-1.21,1.71-1.14,2.92,.27,4.92,.45,9.85-.75,14.71-.69,2.77-2.07,5.05-4.26,6.91-.53,.45-.95,1.3-1.01,2.01-.31,3.62-.48,7.26-.69,10.89-.03,.55,0,1.1,0,1.65,.18,.04,.36,.08,.55,.12Z"/>
    <path class="cls-12" d="M141.6,512.33c.43,.07,.97,.15,1.51,.23,.76-3.13,.23-6.58,2.6-9.33-1.06-1.04-1.76-2.28-1.78-3.84-.03-1.96,.83-2.89,2.64-2.76,1.31,.09,2.05,.96,1.82,2.28-.19,1.13-.5,2.24-.77,3.37,.69,.2,1.39,.4,2.14,.61,.18-.54,.34-1.13,.57-1.7,.28-.72,.7-1.45,1.56-1.39,.46,.03,1.03,.42,1.3,.82,.51,.76,.45,1.67-.18,2.34-.56,.6-1.31,1.02-2.02,1.56,.21,4.19-2.16,7.01-5.45,9.26-.69,.47-.88,.94-.95,1.78-.14,1.56-.59,3.1-.97,4.63-.05,.2-.44,.42-.69,.44-.81,.06-1.63,.07-2.43,0-.28-.03-.65-.33-.77-.6-.9-2-1.52-4.03-.47-6.2,.09-.18-.03-.55-.16-.75-.62-.9-1.27-1.77-1.92-2.64-.26-.35-.57-.67-.8-1.03-1.06-1.69-1.53-3.42-.29-5.13-.93-.98-1.91-1.85-2.69-2.87-.73-.95-.56-1.95,.24-2.69,.83-.76,1.79-.82,2.73-.17,1.19,.83,1.51,2.08,1.65,3.41,.03,.28,0,.56,.17,.63,.79,.39,1.73,.63,2.35,1.21,1.12,1.06,1.39,2.58,1.41,4.05,.01,1.48-.2,2.97-.31,4.5Z"/>
    <path class="cls-12" d="M14.17,504.04c.39-.67,.83-1.26,1.08-1.92,.15-.4,.05-.92,0-1.38-.19-1.41-.05-2.76,.77-3.95,.27-.39,.74-.74,1.19-.91,.97-.36,1.95,.37,1.98,1.4,.05,1.36-.54,2.54-1.07,3.74-.14,.31-.3,.61-.47,.94,1.38,1.15,1.21,2.7,1.08,4.22-.06,.68-.2,1.35-.3,2.03,.06,.03,.11,.06,.17,.1,.28-.47,.61-.93,.83-1.43,.38-.85,.88-1.57,1.75-1.98,.56-.26,1.13-.35,1.64,.06,.53,.43,.69,1.03,.57,1.68-.26,1.41-1.22,2.26-2.45,2.77-.76,.32-1.6,.5-2.41,.63-.42,.07-.57,.2-.68,.59-.27,.97-.29,.97-1.33,.97-1.37,0-1.39,0-1.72-1.32-.23-.94-.4-1.89-.54-2.84-.07-.5-.24-.84-.67-1.15-1.2-.84-2.29-1.82-3-3.15-.16-.3-.29-.62-.38-.95-.21-.78,.07-1.43,.74-1.81,.69-.39,1.44-.37,1.92,.27,.44,.58,.72,1.29,.99,1.98,.18,.45,.21,.95,.31,1.4Z"/>
  </g>
  <g id="Layer_2" data-name="Layer 2">
    <polygon class="cls-5" points="248.92 527.67 248.27 536.03 255.25 536.03 254.6 527.67 248.92 527.67"/>
    <polygon class="cls-5" points="250.81 511.17 250.54 515.15 253.78 515.15 253.55 511.17 250.81 511.17"/>
  </g>
</svg>